<?xml version="1.0" encoding="UTF-8"?>
<svg xmlns="http://www.w3.org/2000/svg" width="186" height="90" viewBox="0 0 186 90" fill="none">
  <g clip-path="url(#clip0_1592_334)">
    <mask id="mask0_1592_334" style="mask-type:luminance" maskUnits="userSpaceOnUse" x="0" y="0" width="186" height="90">
      <path d="M186 0H0V90H186V0Z" fill="white"></path>
    </mask>
    <g mask="url(#mask0_1592_334)">
      <path d="M92.4589 69.2903L92.6955 69.1431C92.655 69.0779 92.5893 69.0323 92.5141 69.0171C92.4388 69.0019 92.3606 69.0184 92.2979 69.0627L92.4589 69.2903ZM170.897 51.3782L170.893 51.0995C170.752 51.1013 170.634 51.2084 170.62 51.3489L170.897 51.3782ZM164.423 23.9065L164.188 24.0571C164.265 24.1758 164.417 24.2189 164.544 24.1575L164.423 23.9065ZM100.201 15.1827L99.9829 15.3564C100.03 15.4164 100.101 15.4541 100.177 15.4605C100.254 15.4669 100.33 15.4414 100.387 15.3902L100.201 15.1827ZM35.3881 25.9499L35.2594 26.1972C35.3309 26.2343 35.415 26.2388 35.49 26.2093C35.565 26.1799 35.6236 26.1194 35.6506 26.0435L35.3881 25.9499ZM41.9567 62.6815L42.1705 62.5027C42.1189 62.4409 42.043 62.4045 41.9625 62.4028C41.882 62.4012 41.8047 62.4344 41.7505 62.494L41.9567 62.6815ZM92.2979 69.0627C86.2203 73.3585 78.8015 75.8824 70.7924 75.8824V76.4399C78.9205 76.4399 86.4511 73.8782 92.6198 69.518L92.2979 69.0627ZM128.6 89.1064C113.445 89.1064 100.153 81.129 92.6955 69.1431L92.2222 69.4376C99.7777 81.5802 113.244 89.6639 128.6 89.6639V89.1064ZM170.62 51.3489C168.374 72.5712 150.417 89.1064 128.6 89.1064V89.6639C150.706 89.6639 168.898 72.9104 171.174 51.4076L170.62 51.3489ZM184.884 36.9256C184.884 44.6927 178.637 51.0008 170.893 51.0995L170.9 51.657C178.949 51.5544 185.441 44.9982 185.441 36.9256H184.884ZM170.709 22.7506C178.537 22.7506 184.884 29.097 184.884 36.9256H185.441C185.441 28.7891 178.845 22.1931 170.709 22.1931V22.7506ZM164.544 24.1575C166.408 23.2561 168.499 22.7506 170.709 22.7506V22.1931C168.413 22.1931 166.239 22.7184 164.302 23.6556L164.544 24.1575ZM128.6 4.59298C143.543 4.59298 156.675 12.3493 164.188 24.0571L164.658 23.7559C157.046 11.8952 143.741 4.03546 128.6 4.03546V4.59298ZM100.387 15.3902C107.868 8.67658 117.756 4.59298 128.6 4.59298V4.03546C117.614 4.03546 107.594 8.1734 100.014 14.9752L100.387 15.3902ZM70.7924 1.28018C82.6124 1.28018 93.1483 6.77771 99.9829 15.3564L100.419 15.009C93.4831 6.30324 82.7894 0.722656 70.7924 0.722656V1.28018ZM35.6506 26.0435C40.8007 11.6098 54.5906 1.28018 70.7924 1.28018V0.722656C54.3475 0.722656 40.3523 11.2075 35.1255 25.8562L35.6506 26.0435ZM24.5405 23.5856C28.4068 23.5856 32.052 24.5287 35.2594 26.1972L35.5167 25.7025C32.2317 23.9937 28.4984 23.0281 24.5405 23.0281V23.5856ZM1.28018 46.8459C1.28018 33.9996 11.6942 23.5856 24.5405 23.5856V23.0281C11.3862 23.0281 0.722656 33.6917 0.722656 46.8459H1.28018ZM24.5405 70.1062C11.6942 70.1062 1.28018 59.6922 1.28018 46.8459H0.722656C0.722656 60.0001 11.3862 70.6637 24.5405 70.6637V70.1062ZM41.7505 62.494C37.4955 67.171 31.361 70.1062 24.5405 70.1062V70.6637C31.5245 70.6637 37.8067 67.6574 42.1629 62.8691L41.7505 62.494ZM70.7924 75.8824C59.2954 75.8824 49.0134 70.6813 42.1705 62.5027L41.7429 62.8604C48.6872 71.1603 59.1234 76.4399 70.7924 76.4399V75.8824Z" fill="#030001"></path>
      <path d="M92.6955 69.1431L92.4589 69.2903L92.2979 69.0627M92.6955 69.1431C92.655 69.0779 92.5893 69.0323 92.5141 69.0171C92.4388 69.0019 92.3606 69.0184 92.2979 69.0627M92.6955 69.1431C100.153 81.129 113.445 89.1064 128.6 89.1064M92.6955 69.1431L92.2222 69.4376C99.7777 81.5802 113.244 89.6639 128.6 89.6639M92.2979 69.0627C86.2203 73.3585 78.8015 75.8824 70.7924 75.8824M92.2979 69.0627L92.6198 69.518C86.4511 73.8782 78.9205 76.4399 70.7924 76.4399M170.893 51.0995L170.897 51.3782L170.62 51.3489M170.893 51.0995C170.752 51.1013 170.634 51.2084 170.62 51.3489M170.893 51.0995C178.637 51.0008 184.884 44.6927 184.884 36.9256M170.893 51.0995L170.9 51.657C178.949 51.5544 185.441 44.9982 185.441 36.9256M170.62 51.3489C168.374 72.5712 150.417 89.1064 128.6 89.1064M170.62 51.3489L171.174 51.4076C168.898 72.9104 150.706 89.6639 128.6 89.6639M164.188 24.0571L164.423 23.9065L164.544 24.1575M164.188 24.0571C164.265 24.1758 164.417 24.2189 164.544 24.1575M164.188 24.0571C156.675 12.3493 143.543 4.59298 128.6 4.59298M164.188 24.0571L164.658 23.7559C157.046 11.8952 143.741 4.03546 128.6 4.03546M164.544 24.1575C166.408 23.2561 168.499 22.7506 170.709 22.7506M164.544 24.1575L164.302 23.6556C166.239 22.7184 168.413 22.1931 170.709 22.1931M99.9829 15.3564L100.201 15.1827L100.387 15.3902M99.9829 15.3564C100.03 15.4164 100.101 15.4541 100.177 15.4605C100.254 15.4669 100.33 15.4414 100.387 15.3902M99.9829 15.3564C93.1483 6.77771 82.6124 1.28018 70.7924 1.28018M99.9829 15.3564L100.419 15.009C93.4831 6.30324 82.7894 0.722656 70.7924 0.722656M100.387 15.3902C107.868 8.67658 117.756 4.59298 128.6 4.59298M100.387 15.3902L100.014 14.9752C107.594 8.1734 117.614 4.03546 128.6 4.03546M35.2594 26.1972L35.3881 25.9499L35.6506 26.0435M35.2594 26.1972C35.3309 26.2343 35.415 26.2388 35.49 26.2093C35.565 26.1799 35.6236 26.1194 35.6506 26.0435M35.2594 26.1972C32.052 24.5287 28.4068 23.5856 24.5405 23.5856M35.2594 26.1972L35.5167 25.7025C32.2317 23.9937 28.4984 23.0281 24.5405 23.0281M35.6506 26.0435C40.8007 11.6098 54.5906 1.28018 70.7924 1.28018M35.6506 26.0435L35.1255 25.8562C40.3523 11.2075 54.3475 0.722656 70.7924 0.722656M42.1705 62.5027L41.9567 62.6815L41.7505 62.494M42.1705 62.5027C42.1189 62.4409 42.043 62.4045 41.9625 62.4028C41.882 62.4012 41.8047 62.4344 41.7505 62.494M42.1705 62.5027C49.0134 70.6813 59.2954 75.8824 70.7924 75.8824M42.1705 62.5027L41.7429 62.8604C48.6872 71.1603 59.1234 76.4399 70.7924 76.4399M41.7505 62.494C37.4955 67.171 31.361 70.1062 24.5405 70.1062M41.7505 62.494L42.1629 62.8691C37.8067 67.6574 31.5245 70.6637 24.5405 70.6637M70.7924 75.8824V76.4399M128.6 89.1064V89.6639M184.884 36.9256H185.441M184.884 36.9256C184.884 29.097 178.537 22.7506 170.709 22.7506M185.441 36.9256C185.441 28.7891 178.845 22.1931 170.709 22.1931M170.709 22.7506V22.1931M128.6 4.59298V4.03546M70.7924 1.28018V0.722656M24.5405 23.5856V23.0281M24.5405 23.5856C11.6942 23.5856 1.28018 33.9996 1.28018 46.8459M24.5405 23.0281C11.3862 23.0281 0.722656 33.6917 0.722656 46.8459M1.28018 46.8459H0.722656M1.28018 46.8459C1.28018 59.6922 11.6942 70.1062 24.5405 70.1062M0.722656 46.8459C0.722656 60.0001 11.3862 70.6637 24.5405 70.6637M24.5405 70.1062V70.6637" stroke="#030001" stroke-width="0.17"></path>
    </g>
  </g>
  <defs>
    <clipPath id="clip0_1592_334">
      <rect width="186" height="90" fill="white"></rect>
    </clipPath>
  </defs>
</svg>
