<?xml version="1.0" encoding="UTF-8"?>
<svg xmlns="http://www.w3.org/2000/svg" width="54" height="36" viewBox="0 0 54 36" fill="none">
  <path fill-rule="evenodd" clip-rule="evenodd" d="M49.9076 16.1806C50.2182 19.1567 49.762 22.2523 48.4285 25.1708C44.4487 33.8809 34.1616 37.7154 25.4515 33.7356C20.8555 31.6356 17.6169 27.7793 16.1677 23.3252C14.2536 23.9672 12.1008 23.9121 10.1196 23.0068C8.21914 22.1385 6.80671 20.6387 6.01726 18.8697C5.02644 19.4925 3.75124 19.6201 2.60726 19.0973C0.801523 18.2723 0.00654843 16.1396 0.831631 14.3338C1.65671 12.5281 3.78941 11.7331 5.59515 12.5582C5.66686 12.591 5.73698 12.6258 5.80547 12.6626C5.87769 12.4666 5.95786 12.2719 6.04609 12.0787C7.93893 7.93618 12.8316 6.11241 16.9742 8.00525C17.3564 8.17989 17.7188 8.38006 18.0604 8.60282C22.6404 1.44188 31.9097 -1.44049 39.8637 2.19389C41.8939 3.12154 43.6592 4.39186 45.1224 5.90501C46.4354 5.47764 47.9061 5.52248 49.2609 6.14154C52.1289 7.45196 53.3915 10.8392 52.081 13.7071C51.5966 14.7673 50.8284 15.6081 49.9076 16.1806Z" fill="#F6F5F1"></path>
  <path d="M49.9076 16.1806L49.46 16.2273C49.4421 16.056 49.5236 15.8894 49.67 15.7985L49.9076 16.1806ZM16.1677 23.3252L16.0246 22.8986C16.1384 22.8604 16.2628 22.8693 16.37 22.9233C16.4773 22.9772 16.5585 23.0718 16.5956 23.186L16.1677 23.3252ZM6.01726 18.8697L5.77778 18.4888C5.88819 18.4194 6.02328 18.4013 6.14807 18.4392C6.27285 18.4771 6.37505 18.5673 6.42819 18.6864L6.01726 18.8697ZM5.80547 12.6626L6.22771 12.8182C6.18266 12.9405 6.08683 13.0372 5.96499 13.0834C5.84316 13.1296 5.70729 13.1207 5.59251 13.059L5.80547 12.6626ZM18.0604 8.60282L18.4395 8.84528C18.3749 8.9464 18.2725 9.01749 18.1551 9.04275C18.0378 9.068 17.9152 9.04532 17.8146 8.97976L18.0604 8.60282ZM45.1224 5.90501L45.2617 6.33292C45.0982 6.38616 44.9185 6.34149 44.799 6.21783L45.1224 5.90501ZM48.0192 24.9838C49.3184 22.1404 49.7625 19.1257 49.46 16.2273L50.3551 16.1339C50.6739 19.1877 50.2056 22.3642 48.8378 25.3579L48.0192 24.9838ZM25.6386 33.3263C34.1225 37.2029 44.1427 33.4678 48.0192 24.9838L48.8378 25.3579C44.7547 34.2939 34.2006 38.228 25.2645 34.1449L25.6386 33.3263ZM16.5956 23.186C18.0075 27.5253 21.1618 31.2808 25.6386 33.3263L25.2645 34.1449C20.5492 31.9904 17.2263 28.0332 15.7398 23.4644L16.5956 23.186ZM10.3066 22.5975C12.1799 23.4535 14.2144 23.5057 16.0246 22.8986L16.3108 23.7519C14.2927 24.4287 12.0217 24.3707 9.93257 23.4161L10.3066 22.5975ZM6.42819 18.6864C7.17471 20.3592 8.50958 21.7764 10.3066 22.5975L9.93257 23.4161C7.9287 22.5005 6.4387 20.9183 5.60632 19.0531L6.42819 18.6864ZM2.79427 18.688C3.79464 19.1451 4.90984 19.0343 5.77778 18.4888L6.25674 19.2507C5.14305 19.9508 3.70783 20.095 2.42024 19.5066L2.79427 18.688ZM1.24093 14.5208C0.519133 16.1005 1.21459 17.9662 2.79427 18.688L2.42024 19.5066C0.388456 18.5783 -0.506036 16.1786 0.422334 14.1468L1.24093 14.5208ZM5.40813 12.9675C3.82844 12.2457 1.96272 12.9412 1.24093 14.5208L0.422334 14.1468C1.3507 12.115 3.75038 11.2205 5.78216 12.1489L5.40813 12.9675ZM5.59251 13.059C5.53251 13.0268 5.47104 12.9962 5.40813 12.9675L5.78216 12.1489C5.86268 12.1857 5.94145 12.2248 6.01842 12.2662L5.59251 13.059ZM6.45539 12.2658C6.37187 12.4486 6.29602 12.6328 6.22771 12.8182L5.38323 12.507C5.45937 12.3004 5.54384 12.0952 5.6368 11.8917L6.45539 12.2658ZM16.7871 8.41455C12.8706 6.625 8.24494 8.34925 6.45539 12.2658L5.6368 11.8917C7.63292 7.52312 12.7926 5.59983 17.1612 7.59596L16.7871 8.41455ZM17.8146 8.97976C17.4917 8.76919 17.1489 8.57985 16.7871 8.41455L17.1612 7.59596C17.5638 7.77993 17.9459 7.99092 18.3062 8.22587L17.8146 8.97976ZM39.6767 2.60319C31.9295 -0.936715 22.9004 1.87055 18.4395 8.84528L17.6813 8.36036C22.3804 1.01321 31.8899 -1.94427 40.0507 1.78459L39.6767 2.60319ZM44.799 6.21783C43.3742 4.74442 41.655 3.5071 39.6767 2.60319L40.0507 1.78459C42.1329 2.73597 43.9443 4.0393 45.4459 5.5922L44.799 6.21783ZM49.0739 6.55083C47.8256 5.98046 46.4716 5.93908 45.2617 6.33292L44.9832 5.47711C46.3991 5.01621 47.9866 5.06449 49.4479 5.73224L49.0739 6.55083ZM51.6717 13.5201C52.8789 10.8782 51.7158 7.75797 49.0739 6.55083L49.4479 5.73224C52.5419 7.14595 53.9041 10.8002 52.4903 13.8941L51.6717 13.5201ZM49.67 15.7985C50.518 15.2712 51.2252 14.4973 51.6717 13.5201L52.4903 13.8941C51.968 15.0373 51.1389 15.9449 50.1452 16.5628L49.67 15.7985Z" fill="#030001"></path>
</svg>
