<?xml version="1.0" encoding="UTF-8"?>
<svg xmlns="http://www.w3.org/2000/svg" width="594" height="217" viewBox="0 0 594 217" fill="none">
  <g clip-path="url(#clip0_1588_154)">
    <path d="M101.58 42.6133C83.9009 42.6133 51.0144 60.5999 4.01705 86.7095L-35.4375 111.659L277.878 158.076L236.103 121.522C184.22 81.4714 126.758 42.6133 101.58 42.6133Z" fill="#BDDBD7"></path>
    <path d="M55.1415 74.3058C47.1369 75.3583 44.0246 68.0766 43.4688 64.4236C69.2488 50.3836 89.1386 42.6133 101.577 42.6133C113.675 42.6133 133.226 51.5846 156.03 65.3484C155.891 67.2481 154.863 72.904 151.861 74.3058C148.109 76.0603 131.85 71.2375 125.18 71.2375C118.51 71.2375 113.09 84.3887 102.668 84.3887C92.245 84.3887 84.7417 68.6069 79.3213 68.6069C73.9021 68.6069 65.1467 72.991 55.1415 74.3058Z" fill="#F6F5F1"></path>
    <path d="M-20.9336 101.795C36.5076 66.4021 83.8995 42.6133 101.579 42.6133C126.756 42.6133 184.218 81.4714 236.101 121.522" stroke="black" stroke-width="1.4" stroke-linecap="round" stroke-linejoin="round"></path>
    <path d="M455.48 2C400.413 2 203.092 155.384 132.824 219H750.172C674.883 146.667 510.546 2 455.48 2Z" fill="#BDDBD7"></path>
    <path d="M351.567 77.4278C331.608 80.677 331.836 76.8476 332.997 64.6631C362.2 43.7754 427.34 2 454.262 2C481.183 2 538.199 40.2941 563.342 59.4412C568.564 68.1444 574.946 81.4893 563.342 81.4893C548.836 81.4893 536.072 64.6631 528.529 64.6631C520.986 64.6631 527.944 81.4893 518.08 81.4893C508.217 81.4893 487.91 64.6631 479.207 64.6631C470.504 64.6631 453.677 81.4893 438.591 81.4893C423.506 81.4893 412.481 59.4412 402.038 59.4412C391.594 59.4412 376.516 73.3663 351.567 77.4278Z" fill="#F6F5F1"></path>
    <path d="M333 64.6633C331.839 76.8478 332.769 80.097 352.728 76.8478C377.677 72.7863 391.021 59.4414 401.465 59.4414C411.909 59.4414 422.933 81.4895 438.018 81.4895C453.104 81.4895 470.508 64.6633 479.211 64.6633C487.914 64.6633 507.063 81.4895 516.926 81.4895C526.79 81.4895 520.989 64.6633 528.532 64.6633C536.074 64.6633 548.839 81.4895 563.344 81.4895C574.949 81.4895 568.566 68.1446 563.344 59.4414" stroke="black" stroke-width="1.4" stroke-linecap="round" stroke-linejoin="round"></path>
    <path d="M455.48 2C400.413 2 203.092 155.384 132.824 219H750.172C674.883 146.667 510.546 2 455.48 2Z" stroke="black" stroke-width="1.4" stroke-linecap="round" stroke-linejoin="round"></path>
    <path d="M-582 46.0977C-182.813 57.1217 389.858 170.331 442.078 218.489H-582V46.0977Z" fill="#BDDBD7" stroke="black" stroke-width="1.4" stroke-linecap="round" stroke-linejoin="round"></path>
    <path d="M43.4688 64.6641C44.0246 68.3182 47.1369 75.3609 55.1415 74.3084C65.1467 72.9937 73.9021 68.6095 79.3213 68.6095C84.7417 68.6095 92.245 84.3913 102.668 84.3913C113.09 84.3913 118.51 71.2402 125.18 71.2402C131.85 71.2402 148.109 76.063 151.861 74.3084C154.863 72.9066 155.891 68.7558 156.03 66.8562" stroke="black" stroke-width="1.4" stroke-linecap="round" stroke-linejoin="round"></path>
    <path d="M294.979 77.1393C282.492 67.828 255.315 48.9665 246.512 48.0091C239.091 47.2026 219.234 61.4875 192.754 79.6737" stroke="black" stroke-width="1.4" stroke-linecap="round" stroke-linejoin="round"></path>
    <path d="M269.841 60.1527C267.012 59.3984 260.992 58.2948 259.546 59.9102C257.74 61.9293 255.861 67.0375 254.103 66.9969C252.345 66.9551 245.987 59.5911 243.979 59.5435C241.969 59.4959 237.094 63.8475 235.084 63.7999C233.075 63.7523 230.67 59.2301 229.414 59.2C228.41 59.1768 224.171 60.8745 221.074 60.8014" stroke="black" stroke-width="1.4" stroke-linecap="round" stroke-linejoin="round"></path>
    <path d="M13 172.222C16.0949 170.481 25.8807 167 40.2701 167" stroke="black" stroke-width="1.4" stroke-linejoin="round"></path>
    <path d="M33.8867 175.122C37.368 173.383 43.7504 172.221 53.0338 175.122" stroke="black" stroke-width="1.4" stroke-linejoin="round"></path>
    <path d="M93.9492 148.283C97.2367 145.962 105.902 141.088 114.257 140.16" stroke="black" stroke-width="1.4" stroke-linejoin="round"></path>
    <path d="M87.5664 148.862C88.9206 146.927 93.4846 142.363 100.911 139.578" stroke="black" stroke-width="1.4" stroke-linejoin="round"></path>
    <path d="M171.117 162.789C176.145 164.336 187.247 169.055 191.425 175.554" stroke="black" stroke-width="1.4" stroke-linejoin="round"></path>
    <path d="M187.945 165.109C189.88 166.27 194.676 170.099 198.389 176.133" stroke="black" stroke-width="1.4" stroke-linejoin="round"></path>
    <path d="M240.742 174.97C243.643 172.455 251.65 167.543 260.469 168.007" stroke="black" stroke-width="1.4" stroke-linejoin="round"></path>
    <path d="M236.102 172.651C237.262 170.136 241.207 164.76 247.706 163.367" stroke="black" stroke-width="1.4" stroke-linejoin="round"></path>
    <path d="M143.266 170.91C146.167 171.297 153.709 173.579 160.672 179.613" stroke="black" stroke-width="1.4" stroke-linejoin="round"></path>
  </g>
  <defs>
    <clipPath id="clip0_1588_154">
      <rect width="594" height="217" fill="white"></rect>
    </clipPath>
  </defs>
</svg>
