<?xml version="1.0" encoding="UTF-8"?>
<svg xmlns="http://www.w3.org/2000/svg" width="1280" height="173" viewBox="0 0 1280 173" fill="none">
  <g clip-path="url(#clip0_1588_154)">
    <path d="M476.822 68.7702C463.302 56.0292 448.098 45.9862 444.086 46.2472C439.616 46.5382 414.61 64.0322 405 68.7702" stroke="black" stroke-width="1.4" stroke-linecap="round" stroke-linejoin="round"></path>
    <path d="M430.859 53.0244C432.061 56.8784 441.357 53.0234 442.571 53.0234C443.784 53.0234 447.793 56.9434 449.007 56.9434C450.221 56.9434 451.724 53.4434 452.482 53.4434C453.089 53.4434 458.334 55.4444 460.205 55.4444" stroke="black" stroke-width="1.4" stroke-linecap="round" stroke-linejoin="round"></path>
    <path d="M564.075 35.4414C548.84 35.4414 520.5 50.9414 480 73.4414L446 94.9414L716 134.941L680 103.441C635.29 68.9274 585.772 35.4414 564.075 35.4414Z" fill="#BDDBD7"></path>
    <path d="M524.059 62.7524C517.161 63.6594 514.479 57.3845 514 54.2365C536.216 42.1375 553.356 35.4414 564.075 35.4414C574.5 35.4414 591.348 43.1724 611 55.0334C610.88 56.6704 609.994 61.5444 607.407 62.7524C604.174 64.2644 590.163 60.1084 584.415 60.1084C578.667 60.1084 573.996 71.4414 565.015 71.4414C556.033 71.4414 549.567 57.8414 544.896 57.8414C540.226 57.8414 532.681 61.6194 524.059 62.7524Z" fill="#F6F5F1"></path>
    <path d="M458.5 86.4414C508 55.9414 548.84 35.4414 564.075 35.4414C585.772 35.4414 635.29 68.9274 680 103.441" stroke="black" stroke-width="1.4" stroke-linecap="round" stroke-linejoin="round"></path>
    <path d="M1265 84.5515C1237.73 68.6555 1214.15 53.9414 1200.5 53.9414C1179.45 53.9414 1125.26 85.7274 1076 115.441L1036 140.941V176.441H1304.5V108.941L1265 84.5515Z" fill="#BDDBD7"></path>
    <path d="M869.049 0.441406C821.595 0.441406 651.553 132.62 591 187.441H1123C1058.12 125.108 916.502 0.441406 869.049 0.441406Z" fill="#BDDBD7"></path>
    <path d="M779.503 65.4414C762.303 68.2414 762.5 64.9414 763.5 54.4414C788.666 36.4414 844.8 0.441406 868 0.441406C891.2 0.441406 940.333 33.4414 962 49.9414C966.5 57.4414 972 68.9414 962 68.9414C949.5 68.9414 938.5 54.4414 932 54.4414C925.5 54.4414 931.496 68.9414 922.996 68.9414C914.496 68.9414 896.997 54.4414 889.497 54.4414C881.997 54.4414 867.496 68.9414 854.496 68.9414C841.496 68.9414 831.996 49.9414 822.996 49.9414C813.996 49.9414 801.003 61.9414 779.503 65.4414Z" fill="#F6F5F1"></path>
    <path d="M763.501 54.4414C762.501 64.9414 763.302 67.7414 780.502 64.9414C802.002 61.4414 813.501 49.9414 822.501 49.9414C831.501 49.9414 841.001 68.9414 854.001 68.9414C867.001 68.9414 881.999 54.4414 889.499 54.4414C896.999 54.4414 913.5 68.9414 922 68.9414C930.5 68.9414 925.501 54.4414 932.001 54.4414C938.501 54.4414 949.501 68.9414 962.001 68.9414C972.001 68.9414 966.501 57.4414 962.001 49.9414" stroke="black" stroke-width="1.4" stroke-linecap="round" stroke-linejoin="round"></path>
    <path d="M869.049 0.441406C821.595 0.441406 651.553 132.62 591 187.441H1123C1058.12 125.108 916.502 0.441406 869.049 0.441406Z" stroke="black" stroke-width="1.4" stroke-linecap="round" stroke-linejoin="round"></path>
    <path d="M991 56.1364C1022.77 40.2734 1054.9 26.4414 1068.34 26.4414C1082.47 26.4414 1112.44 40.8494 1142 57.4414" stroke="black" stroke-width="1.4" stroke-linecap="round" stroke-linejoin="round"></path>
    <path d="M1265 84.5515C1237.73 68.6555 1214.15 53.9414 1200.5 53.9414C1179.45 53.9414 1125.26 85.7274 1076 115.441" stroke="black" stroke-width="1.4" stroke-linecap="round" stroke-linejoin="round"></path>
    <path d="M1144.63 93.9836C1133.39 93.9836 1138.67 82.4376 1139.01 78.9406C1154.17 70.4406 1187.7 53.5406 1200.5 53.9406C1213.3 54.3406 1240.17 69.7736 1252 77.4406C1249.16 84.2996 1242.07 100.441 1236.45 100.441C1229.42 100.441 1210.86 93.9836 1206.34 93.9836C1201.83 93.9836 1197.81 100.441 1192.29 100.441C1186.78 100.441 1181.26 87.9316 1174.73 87.1246C1168.21 86.3176 1158.68 93.9836 1144.63 93.9836Z" fill="#F6F5F1"></path>
    <path d="M1265 84.5515C1237.73 68.6555 1214.15 53.9414 1200.5 53.9414C1179.45 53.9414 1125.26 85.7274 1076 115.441" stroke="black" stroke-width="1.4" stroke-linecap="round" stroke-linejoin="round"></path>
    <path d="M-25 38.4414C319 47.9414 812.5 145.499 857.5 186.999H-25V38.4414Z" fill="#BDDBD7" stroke="black" stroke-width="1.4" stroke-linecap="round" stroke-linejoin="round"></path>
    <path d="M73 95.4996C75.8333 94.1656 84.2 91.8996 95 93.4996" stroke="black" stroke-width="1.4" stroke-linejoin="round"></path>
    <path d="M56 123C57.6667 121.167 62.1 117.2 66.5 116" stroke="black" stroke-width="1.4" stroke-linejoin="round"></path>
    <path d="M65 120C67.1667 119 72.7 117.1 77.5 117.5" stroke="black" stroke-width="1.4" stroke-linejoin="round"></path>
    <path d="M8.5 53C11.1667 53.333 18.5 55.6 26.5 62" stroke="black" stroke-width="1.4" stroke-linejoin="round"></path>
    <path d="M23 55C26.1667 56.333 33.6 60 38 64" stroke="black" stroke-width="1.4" stroke-linejoin="round"></path>
    <path d="M1029.87 38.4414C1027.23 41.8694 1021.55 46.7334 1027.89 46.7334C1035.81 46.7334 1041.26 40.7634 1048.19 43.7484C1055.12 46.7334 1060.07 53.6984 1069.97 50.7134C1079.87 47.7284 1088.77 43.4164 1093.72 43.7484C1098.67 44.0804 1114.02 46.7334 1116 43.7484" stroke="black" stroke-width="1.4" stroke-linecap="round" stroke-linejoin="round"></path>
    <path d="M514 54.4414C514.479 57.5904 517.161 63.6594 524.059 62.7524C532.681 61.6194 540.226 57.8414 544.896 57.8414C549.567 57.8414 556.033 71.4414 565.015 71.4414C573.996 71.4414 578.667 60.1084 584.415 60.1084C590.163 60.1084 604.174 64.2644 607.407 62.7524C609.994 61.5444 610.88 57.9674 611 56.3304" stroke="black" stroke-width="1.4" stroke-linecap="round" stroke-linejoin="round"></path>
    <path d="M1139.01 78.9414C1138.67 82.4384 1133.39 93.9854 1144.63 93.9854C1158.68 93.9854 1168.21 86.3194 1174.73 87.1264C1181.26 87.9334 1186.78 100.441 1192.29 100.441C1197.81 100.441 1201.83 93.9854 1206.34 93.9854C1210.86 93.9854 1229.42 100.441 1236.45 100.441C1242.07 100.441 1249.16 84.3014 1252 77.4414" stroke="black" stroke-width="1.4" stroke-linecap="round" stroke-linejoin="round"></path>
    <path d="M730.737 65.1935C719.976 57.1695 696.557 40.9155 688.971 40.0905C682.576 39.3955 665.464 51.7055 642.645 67.3775" stroke="black" stroke-width="1.4" stroke-linecap="round" stroke-linejoin="round"></path>
    <path d="M96 68.5C98.1667 67.333 104.4 65 112 65" stroke="black" stroke-width="1.4" stroke-linejoin="round"></path>
    <path d="M90 69.5C91.3333 67.667 95.2 63.9 100 63.5" stroke="black" stroke-width="1.4" stroke-linejoin="round"></path>
    <path d="M709.076 50.5549C706.638 49.9049 701.45 48.9539 700.204 50.3459C698.648 52.0859 697.029 56.4879 695.514 56.4529C693.999 56.4169 688.52 50.0709 686.789 50.0299C685.057 49.9889 680.856 53.7389 679.124 53.6979C677.393 53.6569 675.32 49.7599 674.238 49.7339C673.373 49.7139 669.72 51.1769 667.051 51.1139" stroke="black" stroke-width="1.4" stroke-linecap="round" stroke-linejoin="round"></path>
    <path d="M220.652 92.5569C232.491 104.95 234.732 112.182 233.698 125.297L297.276 132.36C296.175 126.464 297.722 123.359 301.099 117.876C295.04 114.587 291.721 114.833 286.073 117.622C284.485 106.246 286.794 99.9289 293.719 88.6539C275.98 94.2349 268.615 99.1299 257.583 109.44C256.199 103.802 255.913 98.5309 258.002 84.6289C249.286 95.9119 246.942 102.002 245.377 111.801C237.484 101.579 232.989 95.8169 220.652 92.5569Z" fill="#BDDBD7"></path>
    <path d="M233.698 125.297C234.732 112.182 232.491 104.95 220.652 92.5569C232.989 95.8169 237.484 101.579 245.377 111.801C246.942 102.002 249.286 95.9119 258.002 84.6289C255.913 98.5309 256.199 103.802 257.583 109.44C268.615 99.1299 275.98 94.2349 293.719 88.6539C286.794 99.9289 284.485 106.246 286.073 117.622C291.721 114.833 295.04 114.587 301.099 117.876C297.722 123.359 296.175 126.464 297.276 132.36" stroke="black" stroke-width="1.6" stroke-linecap="round" stroke-linejoin="round"></path>
    <path d="M11.5 86.9414C16.4401 87.1064 18.3008 89.3144 21 95.4414C22.8568 89.8534 22.6313 86.5304 21 80.4414C26.9162 86.0744 28.475 89.3984 29.5 95.4414C37.9445 86.7364 43.0986 82.4364 56.5 80.4414C53.5813 86.3064 53.8355 89.5774 56.5 95.4414C63.4128 88.5474 68.3724 86.3934 80 86.9414" stroke="black" stroke-width="1.4" stroke-linecap="round" stroke-linejoin="round"></path>
    <path d="M451.156 136.83C460.656 137.951 464.883 140.831 468.152 145.018C469.383 138.331 472.654 133.331 478.654 131.331C476.597 133.44 477.154 140.832 483.154 145.018C491.656 136.712 500.152 129.331 515.154 131.331C509.154 131.977 507.07 142.792 509.28 147.257C515.153 141.832 520.153 140.832 530.653 140.832" stroke="black" stroke-width="1.6" stroke-linecap="round" stroke-linejoin="round"></path>
    <path d="M529 148C531.667 146.5 540.1 143.5 552.5 143.5" stroke="black" stroke-width="1.4" stroke-linejoin="round"></path>
    <path d="M547 150.499C550 149 555.5 147.999 563.5 150.499" stroke="black" stroke-width="1.4" stroke-linejoin="round"></path>
    <path d="M439 130.003C442.5 129.336 451.1 128.903 457.5 132.503" stroke="black" stroke-width="1.4" stroke-linejoin="round"></path>
    <path d="M249 145C253.333 145.167 263.6 147.6 270 156" stroke="black" stroke-width="1.4" stroke-linejoin="round"></path>
    <path d="M240 147C243.833 147.667 252.4 149.9 256 153.5" stroke="black" stroke-width="1.4" stroke-linejoin="round"></path>
    <path d="M557.5 126.5C560.333 124.5 567.8 120.3 575 119.5" stroke="black" stroke-width="1.4" stroke-linejoin="round"></path>
    <path d="M552 127C553.167 125.333 557.1 121.4 563.5 119" stroke="black" stroke-width="1.4" stroke-linejoin="round"></path>
    <path d="M624 139C628.333 140.333 637.9 144.4 641.5 150" stroke="black" stroke-width="1.4" stroke-linejoin="round"></path>
    <path d="M638.5 141C640.167 142 644.3 145.3 647.5 150.5" stroke="black" stroke-width="1.4" stroke-linejoin="round"></path>
    <path d="M684 149.499C686.5 147.332 693.4 143.099 701 143.499" stroke="black" stroke-width="1.4" stroke-linejoin="round"></path>
    <path d="M680 147.5C681 145.333 684.4 140.7 690 139.5" stroke="black" stroke-width="1.4" stroke-linejoin="round"></path>
    <path d="M600 146C602.5 146.333 609 148.3 615 153.5" stroke="black" stroke-width="1.4" stroke-linejoin="round"></path>
  </g>
  <defs>
    <clipPath id="clip0_1588_154">
      <rect width="1280" height="173" fill="white"></rect>
    </clipPath>
  </defs>
</svg>
