<?xml version="1.0" encoding="UTF-8"?>
<svg xmlns="http://www.w3.org/2000/svg" width="395" height="120" viewBox="0 0 395 120" fill="none">
  <circle cx="25.6917" cy="52.25" r="3" transform="rotate(-90 25.6917 52.25)" fill="#F6F5F1" stroke="black" stroke-width="1.4" stroke-linecap="round" stroke-linejoin="round"></circle>
  <circle cx="4.69189" cy="84.25" r="4" transform="rotate(-90 4.69189 84.25)" fill="#F6F5F1" stroke="black" stroke-width="1.4" stroke-linecap="round" stroke-linejoin="round"></circle>
  <path d="M85.111 13.25V27.0147L67.4849 22.8088L82.4288 32.75L69.7839 44.2206L88.1765 37.3382L96.9895 52.25L95.0736 35.0441L108.485 37.3382L96.9895 30.4559L98.9054 16.6912L90.8587 27.0147L85.111 13.25Z" fill="#F6F5F1" stroke="black" stroke-width="1.4" stroke-linecap="round" stroke-linejoin="round"></path>
  <circle cx="308.59" cy="29.5595" r="5" transform="rotate(15 308.59 29.5595)" fill="#F6F5F1" stroke="black" stroke-width="1.4" stroke-linecap="round" stroke-linejoin="round"></circle>
  <circle cx="193.039" cy="20.3386" r="2" transform="rotate(15 193.039 20.3386)" fill="#F6F5F1" stroke="black" stroke-width="1.4" stroke-linecap="round" stroke-linejoin="round"></circle>
  <path d="M252.659 2.61163L252.097 14.3668L240.023 11.1316L250.156 21.6113L243.859 35.4531L254.434 26.8985L266.757 36.9299L260.298 24.3289L276.514 12.1093L257.41 15.7903L252.659 2.61163Z" fill="#F6F5F1" stroke="black" stroke-width="1.4" stroke-linecap="round" stroke-linejoin="round"></path>
  <circle cx="386.252" cy="111.824" r="6" transform="rotate(157.039 386.252 111.824)" fill="#F6F5F1" stroke="black" stroke-width="1.4" stroke-linecap="round" stroke-linejoin="round"></circle>
  <circle cx="386.333" cy="60.7437" r="3" transform="rotate(157.039 386.333 60.7437)" fill="#F6F5F1" stroke="black" stroke-width="1.4" stroke-linecap="round" stroke-linejoin="round"></circle>
</svg>
