<?xml version="1.0" encoding="UTF-8"?>
<svg xmlns="http://www.w3.org/2000/svg" width="157" height="24" viewBox="0 0 157 24" fill="none">
  <path d="M153.224 15.1368C153.224 13.2881 152.168 12.1144 150.349 12.1144C148.441 12.1144 147.179 13.5816 147.179 15.8411V23.6467H143.717V9.38534H147.179V11.2927C148.118 9.97222 149.586 9.0332 151.581 9.0332C154.809 9.0332 156.687 11.2634 156.687 14.1978V23.6467H153.224V15.1368Z" fill="#030001"></path>
  <path d="M126.938 16.516C126.938 12.2904 130.371 9.0332 134.479 9.0332C138.587 9.0332 142.05 12.2904 142.05 16.516C142.05 20.7416 138.587 23.9988 134.479 23.9988C130.371 23.9988 126.938 20.7416 126.938 16.516ZM130.224 16.516C130.224 19.0396 132.073 20.947 134.479 20.947C136.915 20.947 138.763 19.0396 138.763 16.516C138.763 13.9924 136.915 12.085 134.479 12.085C132.073 12.085 130.224 13.9924 130.224 16.516Z" fill="#030001"></path>
  <path d="M119.237 14.4587L118.647 17.4077L118.312 13.7589L121.658 9.44531L125.473 9.44531L120.308 16.1065L126.147 23.7067L122.186 23.7067L118.312 18.5873L118.312 16.523L118.312 13.7589L119.237 14.4587Z" fill="#030001"></path>
  <path d="M115.763 14.4587L116.353 17.4077L116.688 13.7589L113.342 9.44531H109.527L114.692 16.1065L108.853 23.7067H112.814L116.688 18.5873L116.688 16.523V13.7589L115.763 14.4587Z" fill="#030001"></path>
  <path d="M103.443 23.6572L101.242 18.9035H91.3534L89.1526 23.6572H85.3672L96.3126 0.709961L107.258 23.6572H103.443ZM96.3126 8.25146L92.762 15.881H99.8339L96.3126 8.25146Z" fill="#030001"></path>
  <path d="M80.4861 15.1417C80.4861 13.293 79.4297 12.1192 77.6103 12.1192C75.703 12.1192 74.4411 13.5864 74.4411 15.8459V23.6515H70.9785V0H74.4411V11.2976C75.3802 9.97708 76.8474 9.03806 78.8428 9.03806C82.0707 9.03806 83.9487 11.2682 83.9487 14.2027V23.6515H80.4861V15.1417Z" fill="#030001"></path>
  <path d="M60.7676 12.4225V9.40002H62.7923V4.49951H66.255V9.40002H69.1307V12.4225H66.255V23.6614H62.7923V12.4225H60.7676Z" fill="#030001"></path>
  <path d="M54.998 0H58.4607V23.6515H54.998V0Z" fill="#030001"></path>
  <path d="M47.9156 9.38534H51.3782V23.6467H47.9156V21.5632C47.0352 23.0011 45.1572 23.9988 43.2205 23.9988C39.259 23.9988 36.1191 20.7123 36.1191 16.516C36.1191 12.3198 39.259 9.0332 43.2205 9.0332C45.1572 9.0332 47.0352 10.0309 47.9156 11.4688V9.38534ZM39.5524 16.516C39.5524 19.0396 41.4011 20.947 43.8074 20.947C46.2429 20.947 48.0916 19.0396 48.0916 16.516C48.0916 13.9924 46.2429 12.085 43.8074 12.085C41.4011 12.085 39.5524 13.9924 39.5524 16.516Z" fill="#030001"></path>
  <path d="M27.5608 21.035C29.5562 21.035 30.6419 20.1254 31.5516 18.5408L34.1046 20.1841C32.7254 22.649 30.3192 23.9988 27.5608 23.9988C23.5406 23.9988 20.166 20.7416 20.166 16.516C20.166 12.2904 23.5406 9.0332 27.5021 9.0332C31.7277 9.0332 34.6915 12.3491 34.5447 17.367H23.4232C23.7754 19.6265 25.5067 21.035 27.5608 21.035ZM27.5021 11.9676C25.6534 11.9676 24.1275 13.1414 23.57 14.9901H31.1115C30.8767 13.3762 29.6149 11.9676 27.5021 11.9676Z" fill="#030001"></path>
  <path d="M13.6158 23.6456V13.6979H3.66804V23.6456H0V1.52002H3.66804V10.5581H13.6158V1.52002H17.3132V23.6456H13.6158Z" fill="#030001"></path>
</svg>
