<?xml version="1.0" encoding="UTF-8"?>
<svg xmlns="http://www.w3.org/2000/svg" width="585" height="201" viewBox="0 0 585 201" fill="none">
  <path d="M104.227 56.3432C261.441 -14.9068 425.852 9.41015 519.096 120.572L541.736 148.031L526.841 157.938L497.591 141.231C402.062 91.7061 293.81 89.7412 156.254 159.921C169.74 133.454 193.299 112.975 220.769 97.9441C189.714 99.3071 172.24 104.641 140.965 121.353C151.726 96.8411 176.982 67.9862 213.813 54.4942C170.879 45.6732 138.787 50.8102 104.227 56.3432Z" fill="#C3BAF7"></path>
  <path d="M546.856 116.449L531.738 143.435L515.244 137.183L521.123 152.376L500.512 154.444L524.834 158.755L501.252 172.619L529.521 167.067L528.04 200.252L540.21 173.803L565.066 190.394L552.447 161.574L583.55 157.72L544.294 150.762L546.856 116.449Z" fill="#F8EBBF" stroke="black" stroke-width="1.4" stroke-linecap="round" stroke-linejoin="round"></path>
  <path d="M277.02 28.6797C374.421 29.7977 464.459 63.9947 512.059 127.267C442.461 84.7327 354.75 78.9727 249.694 98.3757C270.346 81.9787 293.198 69.6377 319.384 62.4067C291.764 59.6817 274.739 59.1907 243.371 58.8787C268.558 52.1197 282.719 49.0117 308.047 48.5247C298.429 40.6857 291.436 36.3437 277.02 28.6797Z" fill="#7F71D2" stroke="black" stroke-width="1.4" stroke-linecap="round" stroke-linejoin="round"></path>
  <path d="M519.096 120.572C425.852 9.40942 261.441 -14.9066 104.227 56.3434C138.787 50.8104 170.879 45.6734 213.813 54.4944C176.982 67.9864 151.726 96.8414 140.965 121.353C172.24 104.641 189.714 99.3074 220.768 97.9444C193.299 112.975 169.74 133.453 156.254 159.921C293.81 89.7414 402.062 91.7054 497.591 141.231" stroke="black" stroke-width="1.4" stroke-linecap="round" stroke-linejoin="round"></path>
  <path d="M43.0234 67.2459C85.6504 45.3379 174.824 -7.52914 301.024 2.52786" stroke="black" stroke-width="1.4" stroke-linecap="round" stroke-linejoin="round"></path>
  <path d="M1.01953 82.0224C19.1425 69.7004 56.8095 48.4074 84.6675 37.3984" stroke="black" stroke-width="1.4" stroke-linecap="round" stroke-linejoin="round"></path>
</svg>
